<svg aria-hidden="true" style="position: absolute; width: 0; height: 0; overflow: hidden;" version="1.1" xmlns="http://www.w3.org/2000/svg" xmlns:xlink="http://www.w3.org/1999/xlink">
<defs>
<symbol id="icon-facebook" viewBox="0 0 32 32">
<path  style="fill: var(--color1, #fff)" d="M23.793 3.366h-3.81c-1.684 0-3.299 0.669-4.49 1.86s-1.86 2.806-1.86 4.49v3.81h-3.81v5.079h3.81v10.159h5.079v-10.159h3.81l1.27-5.079h-5.079v-3.81c0-0.337 0.134-0.66 0.372-0.898s0.561-0.372 0.898-0.372h3.81v-5.079z"></path>
</symbol>
<symbol id="icon-instagram" viewBox="0 0 32 32">
<path  style="fill: var(--color1, #fff)" d="M25.896 0.846h-21.452c-2.45 0-4.444 1.994-4.444 4.444v21.452c0 2.451 1.994 4.444 4.444 4.444h21.452c2.451 0 4.444-1.994 4.444-4.444v-21.452c0-2.45-1.994-4.444-4.444-4.444zM28.563 26.742c0 1.47-1.196 2.667-2.667 2.667h-21.452c-1.47 0-2.667-1.196-2.667-2.667v-21.452c0-1.47 1.196-2.667 2.667-2.667h21.452c1.47 0 2.667 1.196 2.667 2.667v21.452z"></path>
<path  style="fill: var(--color1, #fff)" d="M24.948 4.46c-0.98 0-1.778 0.798-1.778 1.778s0.798 1.778 1.778 1.778c0.98 0 1.778-0.798 1.778-1.778s-0.797-1.778-1.778-1.778z"></path>
<path  style="fill: var(--color1, #fff)" d="M15.171 8.016c-4.411 0-8 3.589-8 8s3.589 8 8 8 8-3.589 8-8c0-4.411-3.589-8-8-8zM15.171 22.238c-3.431 0-6.222-2.791-6.222-6.222s2.791-6.222 6.222-6.222c3.431 0 6.222 2.791 6.222 6.222s-2.791 6.222-6.222 6.222z"></path>
</symbol>
<symbol id="icon-in" viewBox="0 0 32 32">
<path  style="fill: var(--color1, #fff)" d="M21.253 10.985c2.021 0 3.959 0.803 5.387 2.232s2.232 3.367 2.232 5.387v8.889h-5.079v-8.889c0-0.674-0.268-1.319-0.744-1.796s-1.122-0.744-1.796-0.744-1.319 0.268-1.796 0.744c-0.476 0.476-0.744 1.122-0.744 1.796v8.889h-5.079v-8.889c0-2.021 0.803-3.959 2.232-5.387s3.367-2.232 5.387-2.232z"></path>
<path  style="fill: var(--color1, #fff)" d="M8.555 12.254h-5.079v15.238h5.079v-15.238z"></path>
<path  style="fill: var(--color1, #fff)" d="M6.015 8.445c1.403 0 2.54-1.137 2.54-2.54s-1.137-2.54-2.54-2.54c-1.403 0-2.54 1.137-2.54 2.54s1.137 2.54 2.54 2.54z"></path>
</symbol>
<symbol id="icon-arrow" viewBox="0 0 46 32">
<path d="M2.823 14c-1.105 0-2 0.895-2 2s0.895 2 2 2v-4zM44.237 17.414c0.781-0.781 0.781-2.047 0-2.828l-12.728-12.728c-0.781-0.781-2.047-0.781-2.828 0s-0.781 2.047 0 2.828l11.314 11.314-11.314 11.314c-0.781 0.781-0.781 2.047 0 2.828s2.047 0.781 2.828 0l12.728-12.728zM2.823 18h40v-4h-40v4z"></path>
</symbol>
<symbol id="icon-grey-star" viewBox="0 0 32 32">
<path  style="fill: var(--color2, #d9d9d9)" d="M16.556 1.887l3.491 10.744h11.297l-9.139 6.64 3.491 10.744-9.139-6.64-9.139 6.64 3.491-10.744-9.139-6.64h11.296l3.491-10.744z"></path>
</symbol>
<symbol id="icon-blue-star" viewBox="0 0 32 32">
<path style="fill: var(--color3, #2d9cdb)" d="M16.657 1.887l3.491 10.744h11.296l-9.139 6.64 3.491 10.744-9.139-6.64-9.139 6.64 3.491-10.744-9.139-6.64h11.296l3.491-10.744z"></path>
</symbol>
<symbol id="icon-star" viewBox="0 0 32 32">
<path style="fill: var(--color3, #4FAEAB)" d="M16.657 1.887l3.491 10.744h11.296l-9.139 6.64 3.491 10.744-9.139-6.64-9.139 6.64 3.491-10.744-9.139-6.64h11.296l3.491-10.744z"></path>
</symbol>
<symbol id="icon-captain" viewBox="0 0 43 32">
<path d="M20.491 1.904c-0.417 0.139-8.539 3.393-9.018 3.617-0.325 0.147-0.464 0.479-0.317 0.773 0.24 0.495 0.108 0.533 5.209-1.515l4.675-1.878h0.595c0.386 0 0.726 0.054 0.943 0.139 4.173 1.623 15.827 6.375 16.136 6.584 1.159 0.765 1.778 2.434 1.453 3.941-0.193 0.912-0.564 1.484-2.133 3.3l-1.43 1.654h-29.907l-1.43-1.654c-1.569-1.816-1.94-2.388-2.133-3.3-0.325-1.507 0.294-3.176 1.453-3.941 0.224-0.155 1.244-0.611 2.257-1.020 1.020-0.41 5.233-2.178 5.31-2.248 0.216-0.201 0.185-0.603-0.062-0.796-0.116-0.093-0.263-0.162-0.332-0.162-0.185 0-7.211 2.882-7.629 3.129-0.649 0.379-1.283 1.097-1.677 1.893-0.618 1.252-0.734 2.566-0.348 3.825 0.325 1.043 0.502 1.306 2.411 3.501l1.368 1.576v2.596l-0.734 1.484c-0.951 1.901-0.966 2.156-0.178 2.898 1.376 1.314 3.988 2.666 6.708 3.462 3.153 0.935 6.252 1.26 11.082 1.182 3.439-0.054 5.325-0.27 7.705-0.866 2.96-0.742 5.44-1.87 7.311-3.338 0.812-0.626 1.043-0.927 1.082-1.399 0.039-0.332-0.023-0.479-0.742-1.932l-0.781-1.569v-2.427l1.414-1.623c1.955-2.257 2.118-2.488 2.458-3.593 0.24-0.75 0.255-2.11 0.039-2.821-0.363-1.213-1.267-2.419-2.179-2.913-0.441-0.232-15.997-6.499-16.453-6.623-0.479-0.131-1.638-0.1-2.125 0.062zM36.179 20.497v0.811h-29.134v-0.757c0-0.417 0.023-0.788 0.054-0.811 0.023-0.031 6.584-0.054 14.567-0.054h14.513v0.811zM36.635 23.001l0.232 0.448-0.819 0.494c-1.499 0.889-3.331 1.623-5.394 2.164-1.221 0.317-1.43 0.433-1.43 0.819 0 0.216 0.317 0.564 0.518 0.564 0.232 0 1.661-0.363 2.581-0.665 1.6-0.51 3.068-1.159 4.358-1.924 0.325-0.193 0.618-0.348 0.649-0.348s0.131 0.162 0.232 0.363l0.178 0.371-0.301 0.255c-2.094 1.816-5.51 3.207-9.412 3.841-2.179 0.348-3.663 0.456-6.414 0.456-3.771 0-6.6-0.332-9.428-1.105-2.465-0.672-4.869-1.862-6.221-3.083l-0.425-0.387 0.193-0.386 0.193-0.394 0.502 0.309c2.875 1.77 6.909 2.952 11.306 3.308 2.148 0.178 9.124-0.026 10.293-0.245 0.306 0 3.096-0.56 3.15-0.691 0.077-0.193-0.414-0.896-0.522-1.058-2.89 0.842-4.204 0.757-5.27 0.842-1.631 0.131-6.584 0.108-8.021-0.031-2.967-0.301-5.324-0.842-7.604-1.754-1.128-0.456-1.654-0.711-2.612-1.283l-0.711-0.425 0.1-0.247c0.054-0.131 0.147-0.332 0.201-0.456l0.1-0.209h29.574l0.224 0.456z"></path>
<path d="M20.707 5.776c-2.233 0.402-4.065 2.125-4.59 4.289-0.155 0.634-0.178 1.978-0.039 2.55 0.502 2.071 2.148 3.779 4.15 4.289 0.811 0.209 2.032 0.209 2.844 0 2.002-0.51 3.648-2.218 4.15-4.289 0.139-0.572 0.116-1.917-0.039-2.55-0.471-1.947-1.971-3.524-3.949-4.134-0.611-0.185-1.924-0.271-2.527-0.155zM22.77 7.013c1.893 0.487 3.246 2.11 3.408 4.080 0.17 2.141-1.391 4.243-3.516 4.729-0.224 0.054-0.68 0.1-1.012 0.1-1.26 0-2.272-0.425-3.176-1.329-0.974-0.974-1.453-2.218-1.352-3.501 0.232-2.844 2.913-4.784 5.649-4.080z"></path>
<path d="M21.457 8.481c-0.224 0.085-0.332 0.232-0.363 0.502-0.023 0.201-0.054 0.232-0.294 0.255-0.502 0.039-0.626 0.093-0.726 0.34-0.062 0.131-0.085 0.301-0.062 0.386 0.062 0.255 0.394 0.448 0.757 0.448h0.34v1.275c0 0.703-0.023 1.275-0.062 1.275-0.17 0-0.657-0.433-0.835-0.757-0.255-0.448-0.386-0.556-0.665-0.556-0.294 0-0.526 0.247-0.526 0.556 0 0.34 0.379 0.981 0.781 1.329 1.097 0.935 2.597 0.935 3.694 0 0.402-0.348 0.781-0.989 0.781-1.329 0-0.309-0.232-0.556-0.525-0.556-0.278 0-0.41 0.108-0.665 0.556-0.178 0.325-0.665 0.757-0.835 0.757-0.039 0-0.062-0.572-0.062-1.275v-1.275h0.34c0.363 0 0.696-0.193 0.757-0.448 0.023-0.085 0-0.255-0.062-0.386-0.1-0.247-0.224-0.301-0.726-0.34-0.24-0.023-0.27-0.046-0.294-0.263-0.039-0.386-0.417-0.634-0.75-0.495z"></path>
</symbol>
<symbol id="icon-bed" viewBox="0 0 37 32">
<path d="M6.907 1.051c-1.28 0.308-2.467 1.28-3.052 2.487-0.479 0.997-0.459 0.728-0.459 7.048v5.663l-0.315 0.367c-0.893 1.043-1.457 2.31-1.654 3.721-0.052 0.354-0.066 1.988-0.052 5.060l0.020 4.528 0.249 0.499c0.282 0.577 0.702 0.997 1.28 1.279 0.341 0.171 0.44 0.184 1.096 0.184 0.65 0 0.761-0.020 1.103-0.177 0.532-0.249 1.057-0.768 1.306-1.293 0.19-0.394 0.21-0.505 0.236-1.208l0.026-0.768h22.942l0.026 0.774c0.026 0.696 0.046 0.807 0.236 1.201 0.249 0.525 0.774 1.043 1.306 1.293 0.341 0.158 0.453 0.177 1.102 0.177 0.656 0 0.755-0.013 1.096-0.184 0.577-0.282 0.997-0.702 1.279-1.279l0.249-0.499 0.020-4.561c0.013-3.8 0-4.673-0.079-5.191-0.217-1.391-0.84-2.704-1.739-3.688l-0.335-0.367v-5.572c0-5.368-0.007-5.598-0.131-6.097-0.348-1.372-1.247-2.474-2.52-3.071-0.971-0.459-0.157-0.433-12.088-0.427-9.155 0.007-10.815 0.020-11.15 0.098zM29.062 2.363c0.197 0.059 0.499 0.184 0.683 0.276 0.407 0.203 1.129 0.925 1.359 1.365 0.387 0.715 0.381 0.656 0.381 6.077 0 2.737-0.007 4.974-0.020 4.974-0.007 0-0.249-0.118-0.538-0.262s-0.558-0.262-0.604-0.262c-0.065 0-0.085-0.282-0.085-1.234 0-1.431-0.059-1.831-0.367-2.494-0.256-0.564-0.965-1.313-1.509-1.601-0.696-0.374-0.801-0.381-4.522-0.381-3.754 0-3.734 0-4.508 0.407-0.21 0.112-0.558 0.374-0.774 0.591l-0.394 0.394-0.387-0.387c-0.413-0.42-0.945-0.735-1.509-0.899-0.525-0.151-6.996-0.158-7.586-0.007-0.551 0.144-0.984 0.4-1.496 0.879-0.348 0.328-0.505 0.538-0.702 0.952-0.335 0.702-0.394 1.076-0.394 2.533v1.227l-0.269 0.085c-0.144 0.053-0.459 0.203-0.689 0.335l-0.42 0.249v-5.073c0-4.469 0.013-5.112 0.105-5.427 0.322-1.076 1.122-1.91 2.192-2.271l0.427-0.144 10.638-0.007c9.588 0 10.671 0.013 10.992 0.105zM16.291 10.343c0.407 0.21 0.847 0.676 1.037 1.089 0.125 0.269 0.144 0.446 0.164 1.437l0.026 1.129-4.915 0.026c-2.697 0.013-4.974 0.046-5.053 0.079l-0.151 0.046v-1.043c0-1.122 0.072-1.536 0.361-1.982 0.256-0.407 0.748-0.787 1.214-0.932 0.092-0.026 1.7-0.046 3.577-0.039l3.412 0.013 0.328 0.177zM27.664 10.317c0.459 0.243 0.833 0.63 1.037 1.083 0.184 0.394 0.19 0.446 0.21 1.582l0.026 1.175-0.158-0.052c-0.085-0.033-2.363-0.066-5.060-0.079l-4.915-0.026 0.026-1.129c0.020-0.991 0.039-1.168 0.164-1.437 0.256-0.558 0.82-1.057 1.398-1.24 0.092-0.026 1.7-0.046 3.577-0.039l3.412 0.013 0.282 0.151zM28.268 15.383c1.489 0.158 2.835 0.814 3.8 1.877 0.453 0.499 0.682 0.84 0.991 1.483 0.46 0.958 0.545 1.398 0.577 3.019l0.026 1.424-6.851 0.039-0.19 0.217c-0.262 0.289-0.262 0.61 0 0.873l0.19 0.19h6.838v2.625h-30.975v-2.625h9.043c19.512 0 18.758 0.033 18.909-0.427 0.105-0.328-0.072-0.689-0.394-0.801-0.171-0.059-11.926-0.079-18.659-0.079l-8.912-0.007 0.026-1.463c0.033-1.345 0.046-1.503 0.21-2.041 0.492-1.641 1.483-2.868 2.94-3.642 0.61-0.328 1.444-0.584 2.12-0.656 0.801-0.085 19.504-0.085 20.311-0.007zM5.365 29c0 0.82-0.197 1.208-0.748 1.49-0.387 0.197-0.991 0.145-1.358-0.111-0.413-0.295-0.545-0.604-0.571-1.332l-0.026-0.604h2.704v0.558zM33.636 29.046c-0.026 0.728-0.157 1.037-0.571 1.332-0.367 0.256-0.971 0.308-1.359 0.111-0.551-0.282-0.748-0.669-0.748-1.49v-0.558h2.704l-0.026 0.604z"></path>
<path d="M23.63 23.245c-0.223 0.033-0.479 0.381-0.479 0.65 0 0.328 0.295 0.61 0.637 0.61 0.492 0 0.774-0.427 0.591-0.873-0.052-0.125-0.131-0.249-0.171-0.276-0.131-0.079-0.427-0.138-0.577-0.112z"></path>
</symbol>
<symbol id="icon-location" viewBox="0 0 23 32">
<path d="M11.363 0.328c-2.764 0.266-5.045 1.341-6.905 3.249-2.574 2.64-3.709 6.433-2.971 9.894 0.288 1.323 0.726 2.516 1.382 3.733 0.386 0.715 7.981 12.553 8.223 12.818 0.599 0.656 1.497 0.656 2.096 0 0.144-0.159 6.795-10.45 7.717-11.95 1.451-2.351 2.188-4.82 2.096-7-0.075-1.737-0.409-3.113-1.123-4.566-0.564-1.152-1.181-2.032-2.056-2.93-1.641-1.678-3.697-2.759-5.983-3.137-0.547-0.089-2.027-0.159-2.476-0.112zM13.638 1.745c3.052 0.455 5.897 2.641 7.175 5.505 0.645 1.441 0.904 2.635 0.904 4.176 0 0.727-0.023 1.016-0.15 1.624-0.288 1.412-0.76 2.629-1.566 4.005-0.714 1.229-7.78 12.151-7.861 12.151s-7.146-10.922-7.861-12.151c-0.754-1.294-1.198-2.381-1.497-3.68-0.466-2.026-0.242-4.058 0.685-6.126 1.307-2.93 4.261-5.145 7.377-5.535 1.025-0.13 1.791-0.124 2.793 0.030z"></path>
<path d="M11.162 5.638c-1.946 0.36-3.553 1.689-4.336 3.574-0.726 1.754-0.536 3.857 0.484 5.458 0.823 1.282 1.981 2.127 3.507 2.558 0.53 0.148 2.119 0.148 2.649 0 1.526-0.431 2.684-1.276 3.507-2.558 0.806-1.258 1.106-2.877 0.812-4.336-0.42-2.103-1.872-3.792-3.841-4.484-0.835-0.289-1.918-0.372-2.781-0.213zM12.699 6.914c0.967 0.136 1.797 0.538 2.493 1.211 1.445 1.4 1.831 3.509 0.979 5.322-0.564 1.193-1.601 2.079-2.862 2.451-0.639 0.189-1.699 0.189-2.338 0-2.229-0.656-3.634-2.9-3.242-5.186 0.334-1.967 1.872-3.515 3.778-3.792 0.524-0.077 0.679-0.077 1.192-0.006z"></path>
</symbol>
<symbol id="icon-wheel" viewBox="0 0 31 32">
<path d="M28.877 14.849c-0.838 0-1.551 0.324-1.817 0.775h-1.324c-0.037-0.176-0.178-0.31-0.354-0.342-0.16-2.129-1.004-4.064-2.317-5.589 0.102-0.146 0.111-0.338 0.014-0.486l0.935-0.935c0.507 0.132 1.24-0.141 1.833-0.736 0.754-0.754 0.995-1.733 0.539-2.189s-1.435-0.215-2.189 0.539c-0.592 0.592-0.868 1.326-0.736 1.833l-0.935 0.935c-0.148-0.097-0.34-0.088-0.486 0.014-1.525-1.312-3.46-2.159-5.589-2.317-0.030-0.176-0.167-0.317-0.343-0.354v-1.324c0.451-0.266 0.775-0.977 0.775-1.817 0-1.065-0.523-1.93-1.166-1.93s-1.166 0.863-1.166 1.93c0 0.838 0.324 1.551 0.775 1.817v1.324c-0.176 0.037-0.31 0.178-0.342 0.354-2.129 0.16-4.064 1.004-5.589 2.317-0.146-0.102-0.338-0.111-0.486-0.014l-0.935-0.935c0.132-0.507-0.141-1.24-0.736-1.833-0.754-0.754-1.733-0.995-2.189-0.539s-0.215 1.435 0.539 2.189c0.592 0.592 1.326 0.868 1.833 0.736l0.935 0.935c-0.097 0.148-0.088 0.34 0.014 0.486-1.312 1.525-2.159 3.46-2.317 5.589-0.176 0.030-0.317 0.167-0.354 0.342h-1.324c-0.266-0.451-0.977-0.775-1.817-0.775-1.062 0-1.925 0.521-1.925 1.166 0 0.643 0.863 1.166 1.93 1.166 0.838 0 1.551-0.324 1.817-0.775h1.324c0.037 0.174 0.178 0.31 0.354 0.343 0.16 2.129 1.004 4.064 2.317 5.589-0.102 0.146-0.111 0.338-0.014 0.486l-0.935 0.935c-0.507-0.132-1.24 0.141-1.833 0.736-0.754 0.754-0.995 1.733-0.539 2.189s1.435 0.215 2.189-0.539c0.592-0.592 0.868-1.326 0.736-1.833l0.935-0.935c0.148 0.097 0.34 0.088 0.486-0.014 1.525 1.312 3.46 2.159 5.589 2.317 0.030 0.176 0.167 0.317 0.34 0.354v1.324c-0.451 0.266-0.775 0.977-0.775 1.817 0 1.065 0.523 1.93 1.166 1.93s1.166-0.863 1.166-1.93c0-0.838-0.324-1.551-0.775-1.817v-1.324c0.176-0.037 0.31-0.178 0.343-0.354 2.129-0.16 4.064-1.004 5.589-2.317 0.146 0.102 0.338 0.111 0.486 0.014l0.935 0.935c-0.132 0.507 0.141 1.24 0.736 1.833 0.754 0.754 1.733 0.995 2.189 0.539s0.215-1.435-0.539-2.189c-0.592-0.592-1.326-0.868-1.833-0.736l-0.935-0.935c0.097-0.148 0.088-0.34-0.014-0.486 1.312-1.525 2.159-3.46 2.317-5.589 0.176-0.030 0.317-0.167 0.354-0.343h1.324c0.266 0.451 0.977 0.775 1.817 0.775 1.065 0 1.93-0.523 1.93-1.166-0.005-0.646-0.868-1.166-1.932-1.166zM10.157 22.13l0.805-0.805c0.157-0.157 0.373-0.248 0.597-0.248 0.465 0 0.842-0.377 0.842-0.842 0-0.225 0.088-0.437 0.248-0.597l1.206-1.206 0.072 0.072c0.058 0.058 0.153 0.058 0.213 0l0.65-0.65c0.093 0.046 0.19 0.088 0.289 0.12v0.919c0 0.083 0.067 0.151 0.15 0.151h0.102v1.706c0 0.225-0.088 0.437-0.248 0.597-0.329 0.329-0.329 0.863 0 1.192 0.157 0.157 0.248 0.373 0.248 0.597v1.136c-1.99-0.093-3.795-0.886-5.175-2.141zM7.463 16.405h1.136c0.225 0 0.437 0.088 0.597 0.248 0.329 0.329 0.863 0.329 1.192 0 0.157-0.157 0.373-0.248 0.597-0.248h1.706v0.102c0 0.083 0.067 0.15 0.15 0.15h0.919c0.032 0.099 0.074 0.197 0.12 0.289l-0.65 0.65c-0.058 0.058-0.058 0.153 0 0.213l0.072 0.072-1.206 1.206c-0.157 0.157-0.373 0.248-0.597 0.248-0.465 0-0.842 0.377-0.842 0.842 0 0.225-0.088 0.437-0.248 0.597l-0.805 0.805c-1.254-1.379-2.048-3.184-2.141-5.175zM21.282 9.899l-0.805 0.805c-0.157 0.157-0.373 0.248-0.597 0.248-0.465 0-0.842 0.377-0.842 0.842 0 0.225-0.088 0.437-0.248 0.597l-1.206 1.206-0.072-0.072c-0.058-0.058-0.153-0.058-0.213 0l-0.65 0.65c-0.093-0.046-0.19-0.088-0.289-0.12v-0.919c0-0.083-0.067-0.15-0.151-0.15h-0.102v-1.706c0-0.225 0.088-0.437 0.248-0.597 0.329-0.329 0.329-0.863 0-1.192-0.157-0.157-0.248-0.373-0.248-0.597v-1.136c1.993 0.093 3.798 0.886 5.175 2.141zM23.976 15.625h-1.136c-0.224 0-0.437-0.088-0.597-0.248-0.329-0.329-0.863-0.329-1.192 0-0.157 0.157-0.373 0.248-0.597 0.248h-1.706v-0.102c0-0.083-0.067-0.15-0.151-0.15h-0.919c-0.032-0.1-0.074-0.197-0.12-0.289l0.65-0.65c0.058-0.058 0.058-0.153 0-0.213l-0.072-0.072 1.206-1.206c0.157-0.157 0.373-0.248 0.597-0.248 0.465 0 0.842-0.377 0.842-0.842 0-0.224 0.088-0.437 0.248-0.597l0.805-0.805c1.254 1.382 2.048 3.187 2.141 5.175zM15.33 8.895c0 0.225-0.088 0.437-0.248 0.597-0.329 0.329-0.329 0.863 0 1.192 0.157 0.157 0.248 0.373 0.248 0.597v1.706h-0.102c-0.083 0-0.15 0.067-0.15 0.15v0.919c-0.1 0.032-0.197 0.074-0.289 0.12l-0.65-0.65c-0.058-0.058-0.153-0.058-0.213 0l-0.072 0.072-1.206-1.206c-0.157-0.157-0.248-0.373-0.248-0.597 0-0.465-0.377-0.842-0.842-0.842-0.224 0-0.437-0.088-0.597-0.248l-0.805-0.805c1.379-1.254 3.184-2.050 5.172-2.143v1.139h0.002zM9.604 10.452l0.805 0.805c0.157 0.157 0.248 0.373 0.248 0.597 0 0.465 0.377 0.842 0.842 0.842 0.224 0 0.437 0.088 0.597 0.248l1.206 1.206-0.072 0.072c-0.058 0.058-0.058 0.153 0 0.213l0.65 0.65c-0.046 0.093-0.088 0.19-0.12 0.289h-0.919c-0.083 0-0.15 0.067-0.15 0.15v0.102h-1.706c-0.225 0-0.437-0.088-0.597-0.248-0.329-0.329-0.863-0.329-1.192 0-0.157 0.157-0.373 0.248-0.597 0.248h-1.136c0.093-1.99 0.886-3.795 2.141-5.175zM16.109 23.134c0-0.224 0.088-0.437 0.248-0.597 0.329-0.329 0.329-0.863 0-1.192-0.157-0.157-0.248-0.373-0.248-0.597v-1.706h0.102c0.083 0 0.15-0.067 0.15-0.151v-0.919c0.099-0.032 0.197-0.074 0.289-0.12l0.65 0.65c0.058 0.058 0.153 0.058 0.213 0l0.072-0.072 1.206 1.206c0.157 0.157 0.248 0.373 0.248 0.597 0 0.465 0.377 0.842 0.842 0.842 0.225 0 0.437 0.088 0.597 0.248l0.805 0.805c-1.379 1.254-3.184 2.050-5.172 2.141v-1.136h-0.002zM21.835 21.577l-0.805-0.805c-0.157-0.157-0.248-0.373-0.248-0.597 0-0.465-0.377-0.842-0.842-0.842-0.225 0-0.437-0.088-0.597-0.248l-1.206-1.206 0.072-0.072c0.058-0.058 0.058-0.153 0-0.213l-0.65-0.65c0.046-0.093 0.088-0.19 0.12-0.289h0.919c0.083 0 0.151-0.067 0.151-0.15v-0.102h1.706c0.224 0 0.437 0.088 0.597 0.248 0.329 0.329 0.863 0.329 1.192 0 0.157-0.157 0.373-0.248 0.597-0.248h1.136c-0.093 1.993-0.886 3.798-2.141 5.175z"></path>
</symbol>
</defs>
</svg>
